<svg width="25" height="25" xmlns="http://www.w3.org/2000/svg" viewBox="0 0 373.79 344.7">
<defs><style>.cls-1{fill:#fff;}</style></defs>
<title>Монтажная область 118</title>
<path class="cls-1" d="M186.89,0A186.91,186.91,0,0,0,82.34,341.83l.24.16c10.52,7.09,24.7-.59,24.7-13.27V284.36c0-43.9,35.11-80.29,79-80.61a79.61,79.61,0,0,1,80.22,79.61v45.36c0,12.68,14.18,20.36,24.7,13.27l.24-.16a186.71,186.71,0,0,0,82.34-154.94C373.79,83.68,290.11,0,186.89,0ZM299.55,301a4.76,4.76,0,0,1-8.1-3.37V284.16c0-57.79-46.4-105.49-104.19-105.69A104.55,104.55,0,0,0,82.34,283v14.6a4.76,4.76,0,0,1-8.1,3.37A159.85,159.85,0,0,1,26.55,186.9c0-88.48,73.53-161.23,162-160.34A160.35,160.35,0,0,1,299.55,301Z"/>
<path class="cls-1" d="M186.89,62A47.11,47.11,0,1,0,234,109.15,47.11,47.11,0,0,0,186.89,62Zm0,71.24A24.13,24.13,0,1,1,211,109.15,24.13,24.13,0,0,1,186.89,133.28Z"/>
</svg>